<?xml version="1.0" encoding="utf-8"?>
<svg width="100%" height="100%" viewBox="-105.0 -105.0 210.0 210.0" preserveAspectRatio="xMidYMid meet" version="1.1" baseProfile="full" xmlns="http://www.w3.org/2000/svg">
<g style="stroke:#fff; stroke-width: 0.729490168752; stroke-linejoin: round;">
<path fill="#962" fill-opacity="0.6" d="m-95.4915028125,-13.8757275713 l14.589803375,-3.5527136788e-15 l-11.803398875,-8.57567125769 l-14.589803375,3.5527136788e-15z"/>
<path fill="none" stroke="#f44" d="M -88.196601125 -13.8757275713 A 7.29490168752 7.29490168752 0 0 0 -101.39320225 -18.1635632001"/>
<path fill="none" stroke="#44f" d="M -100.0 -22.451398829 A 7.29490168752 7.29490168752 0 0 0 -86.803398875 -18.1635632001"/>
<path fill="#883" fill-opacity="0.6" d="m-95.4915028125,13.8757275713 l14.589803375,3.5527136788e-15 l-11.803398875,8.57567125769 l-14.589803375,-3.5527136788e-15z"/>
<path fill="none" stroke="#f44" d="M -101.39320225 18.1635632001 A 7.29490168752 7.29490168752 0 0 0 -88.196601125 13.8757275713"/>
<path fill="none" stroke="#44f" d="M -86.803398875 18.1635632001 A 7.29490168752 7.29490168752 0 0 0 -100.0 22.451398829"/>
<path fill="#934" fill-opacity="0.6" d="m-80.9016994375,-13.8757275713 l-14.589803375,3.5527136788e-15 l-4.50849718747,13.8757275713 l14.589803375,-3.5527136788e-15z"/>
<path fill="none" stroke="#f44" d="M -88.196601125 -13.8757275713 A 7.29490168752 7.29490168752 0 0 0 -83.1559480312 -6.93786378564"/>
<path fill="none" stroke="#44f" d="M -92.7050983125 -1.7763568394e-15 A 7.29490168752 7.29490168752 0 0 0 -97.7457514063 -6.93786378564"/>
<path fill="#363" fill-opacity="0.6" d="m-80.9016994375,13.8757275713 l-14.589803375,-3.5527136788e-15 l-4.50849718747,-13.8757275713 l14.589803375,3.5527136788e-15z"/>
<path fill="none" stroke="#f44" d="M -83.1559480312 6.93786378564 A 7.29490168752 7.29490168752 0 0 0 -88.196601125 13.8757275713"/>
<path fill="none" stroke="#44f" d="M -97.7457514063 6.93786378564 A 7.29490168752 7.29490168752 0 0 0 -92.7050983125 1.7763568394e-15"/>
<path fill="#8cf" fill-opacity="0.6" d="m-85.410196625,-44.902797658 l4.50849718747,13.8757275713 l-11.803398875,8.57567125769 l-4.50849718747,-13.8757275713z"/>
<path fill="none" stroke="#f44" d="M -91.3118960625 -40.6149620291 A 7.29490168752 7.29490168752 0 0 0 -83.1559480312 -37.9649338723"/>
<path fill="none" stroke="#44f" d="M -86.803398875 -26.7392344578 A 7.29490168752 7.29490168752 0 0 0 -94.9593469062 -29.3892626146"/>
<path fill="#e30" fill-opacity="0.6" d="m-85.410196625,44.902797658 l4.50849718747,-13.8757275713 l-11.803398875,-8.57567125769 l-4.50849718747,13.8757275713z"/>
<path fill="none" stroke="#f44" d="M -83.1559480312 37.9649338723 A 7.29490168752 7.29490168752 0 0 0 -91.3118960625 40.6149620291"/>
<path fill="none" stroke="#44f" d="M -94.9593469062 29.3892626146 A 7.29490168752 7.29490168752 0 0 0 -86.803398875 26.7392344578"/>
<path fill="#9d6" fill-opacity="0.6" d="m-69.0983005625,-22.451398829 l-11.803398875,-8.57567125769 l-11.803398875,8.57567125769 l11.803398875,8.57567125769z"/>
<path fill="none" stroke="#f44" d="M -75.0 -26.7392344578 A 7.29490168752 7.29490168752 0 0 0 -75.0 -18.1635632001"/>
<path fill="none" stroke="#44f" d="M -86.803398875 -18.1635632001 A 7.29490168752 7.29490168752 0 0 0 -86.803398875 -26.7392344578"/>
<path fill="#c70" fill-opacity="0.6" d="m-69.0983005625,22.451398829 l-11.803398875,8.57567125769 l-11.803398875,-8.57567125769 l11.803398875,-8.57567125769z"/>
<path fill="none" stroke="#f44" d="M -75.0 18.1635632001 A 7.29490168752 7.29490168752 0 0 0 -75.0 26.7392344578"/>
<path fill="none" stroke="#44f" d="M -86.803398875 26.7392344578 A 7.29490168752 7.29490168752 0 0 0 -86.803398875 18.1635632001"/>
<path fill="#768" fill-opacity="0.6" d="m-85.410196625,0.0 l4.50849718747,13.8757275713 l4.50849718747,-13.8757275713 l-4.50849718747,-13.8757275713z"/>
<path fill="none" stroke="#f44" d="M -83.1559480312 6.93786378564 A 7.29490168752 7.29490168752 0 0 0 -83.1559480312 -6.93786378564"/>
<path fill="none" stroke="#44f" d="M -78.6474508438 -6.93786378564 A 7.29490168752 7.29490168752 0 0 0 -78.6474508438 6.93786378564"/>
<path fill="#773" fill-opacity="0.6" d="m-80.9016994375,-58.7785252292 l11.803398875,8.57567125769 l-4.50849718747,13.8757275713 l-11.803398875,-8.57567125769z"/>
<path fill="none" stroke="#f44" d="M -83.1559480312 -51.8406614436 A 7.29490168752 7.29490168752 0 0 0 -75.0 -54.4906896004"/>
<path fill="none" stroke="#44f" d="M -71.3525491562 -43.2649901859 A 7.29490168752 7.29490168752 0 0 0 -79.5084971875 -40.6149620291"/>
<path fill="#2f8" fill-opacity="0.6" d="m-80.9016994375,-31.0270700867 l-4.50849718747,-13.8757275713 l11.803398875,8.57567125769 l4.50849718747,13.8757275713z"/>
<path fill="none" stroke="#f44" d="M -75.0 -26.7392344578 A 7.29490168752 7.29490168752 0 0 0 -83.1559480312 -37.9649338723"/>
<path fill="none" stroke="#44f" d="M -79.5084971875 -40.6149620291 A 7.29490168752 7.29490168752 0 0 0 -71.3525491562 -29.3892626146"/>
<path fill="#c5b" fill-opacity="0.6" d="m-80.9016994375,31.0270700867 l-4.50849718747,13.8757275713 l11.803398875,-8.57567125769 l4.50849718747,-13.8757275713z"/>
<path fill="none" stroke="#f44" d="M -83.1559480312 37.9649338723 A 7.29490168752 7.29490168752 0 0 0 -75.0 26.7392344578"/>
<path fill="none" stroke="#44f" d="M -71.3525491562 29.3892626146 A 7.29490168752 7.29490168752 0 0 0 -79.5084971875 40.6149620291"/>
<path fill="#cb1" fill-opacity="0.6" d="m-80.9016994375,58.7785252292 l11.803398875,-8.57567125769 l-4.50849718747,-13.8757275713 l-11.803398875,8.57567125769z"/>
<path fill="none" stroke="#f44" d="M -75.0 54.4906896004 A 7.29490168752 7.29490168752 0 0 0 -83.1559480312 51.8406614436"/>
<path fill="none" stroke="#44f" d="M -79.5084971875 40.6149620291 A 7.29490168752 7.29490168752 0 0 0 -71.3525491562 43.2649901859"/>
<path fill="#d23" fill-opacity="0.6" d="m-69.0983005625,-22.451398829 l4.50849718747,13.8757275713 l-11.803398875,8.57567125769 l-4.50849718747,-13.8757275713z"/>
<path fill="none" stroke="#f44" d="M -75.0 -18.1635632001 A 7.29490168752 7.29490168752 0 0 0 -66.8440519688 -15.5135350433"/>
<path fill="none" stroke="#44f" d="M -70.4915028125 -4.28783562885 A 7.29490168752 7.29490168752 0 0 0 -78.6474508438 -6.93786378564"/>
<path fill="#f27" fill-opacity="0.6" d="m-69.0983005625,22.451398829 l4.50849718747,-13.8757275713 l-11.803398875,-8.57567125769 l-4.50849718747,13.8757275713z"/>
<path fill="none" stroke="#f44" d="M -66.8440519688 15.5135350433 A 7.29490168752 7.29490168752 0 0 0 -75.0 18.1635632001"/>
<path fill="none" stroke="#44f" d="M -78.6474508438 6.93786378564 A 7.29490168752 7.29490168752 0 0 0 -70.4915028125 4.28783562885"/>
<path fill="#7a1" fill-opacity="0.6" d="m-80.9016994375,-58.7785252292 l11.803398875,8.57567125769 l11.803398875,-8.57567125769 l-11.803398875,-8.57567125769z"/>
<path fill="none" stroke="#f44" d="M -75.0 -54.4906896004 A 7.29490168752 7.29490168752 0 0 0 -75.0 -63.0663608581"/>
<path fill="none" stroke="#44f" d="M -63.196601125 -63.0663608581 A 7.29490168752 7.29490168752 0 0 0 -63.196601125 -54.4906896004"/>
<path fill="#47b" fill-opacity="0.6" d="m-80.9016994375,58.7785252292 l11.803398875,-8.57567125769 l11.803398875,8.57567125769 l-11.803398875,8.57567125769z"/>
<path fill="none" stroke="#f44" d="M -75.0 63.0663608581 A 7.29490168752 7.29490168752 0 0 0 -75.0 54.4906896004"/>
<path fill="none" stroke="#44f" d="M -63.196601125 54.4906896004 A 7.29490168752 7.29490168752 0 0 0 -63.196601125 63.0663608581"/>
<path fill="#6c9" fill-opacity="0.6" d="m-64.589803375,-36.3271264003 l-4.50849718747,13.8757275713 l-4.50849718747,-13.8757275713 l4.50849718747,-13.8757275713z"/>
<path fill="none" stroke="#f44" d="M -66.8440519688 -43.2649901859 A 7.29490168752 7.29490168752 0 0 0 -66.8440519688 -29.3892626146"/>
<path fill="none" stroke="#44f" d="M -71.3525491562 -29.3892626146 A 7.29490168752 7.29490168752 0 0 0 -71.3525491562 -43.2649901859"/>
<path fill="#664" fill-opacity="0.6" d="m-64.589803375,36.3271264003 l-4.50849718747,-13.8757275713 l-4.50849718747,13.8757275713 l4.50849718747,13.8757275713z"/>
<path fill="none" stroke="#f44" d="M -66.8440519688 29.3892626146 A 7.29490168752 7.29490168752 0 0 0 -66.8440519688 43.2649901859"/>
<path fill="none" stroke="#44f" d="M -71.3525491562 43.2649901859 A 7.29490168752 7.29490168752 0 0 0 -71.3525491562 29.3892626146"/>
<path fill="#b5" fill-opacity="0.6" d="m-52.7864045,0.0 l-11.803398875,8.57567125769 l-11.803398875,-8.57567125769 l11.803398875,-8.57567125769z"/>
<path fill="none" stroke="#f44" d="M -58.6881039375 -4.28783562885 A 7.29490168752 7.29490168752 0 0 0 -58.6881039375 4.28783562885"/>
<path fill="none" stroke="#44f" d="M -70.4915028125 4.28783562885 A 7.29490168752 7.29490168752 0 0 0 -70.4915028125 -4.28783562885"/>
<path fill="#7b6" fill-opacity="0.6" d="m-64.589803375,-8.57567125769 l11.803398875,8.57567125769 l-4.50849718747,-13.8757275713 l-11.803398875,-8.57567125769z"/>
<path fill="none" stroke="#f44" d="M -58.6881039375 -4.28783562885 A 7.29490168752 7.29490168752 0 0 0 -66.8440519688 -15.5135350433"/>
<path fill="none" stroke="#44f" d="M -63.196601125 -18.1635632001 A 7.29490168752 7.29490168752 0 0 0 -55.0406530938 -6.93786378564"/>
<path fill="#74c" fill-opacity="0.6" d="m-64.589803375,8.57567125769 l11.803398875,-8.57567125769 l-4.50849718747,13.8757275713 l-11.803398875,8.57567125769z"/>
<path fill="none" stroke="#f44" d="M -66.8440519688 15.5135350433 A 7.29490168752 7.29490168752 0 0 0 -58.6881039375 4.28783562885"/>
<path fill="none" stroke="#44f" d="M -55.0406530938 6.93786378564 A 7.29490168752 7.29490168752 0 0 0 -63.196601125 18.1635632001"/>
<path fill="#94b" fill-opacity="0.6" d="m-69.0983005625,-50.2028539716 l14.589803375,0.0 l4.50849718747,13.8757275713 l-14.589803375,-0.0z"/>
<path fill="none" stroke="#f44" d="M -66.8440519688 -43.2649901859 A 7.29490168752 7.29490168752 0 0 0 -61.803398875 -50.2028539716"/>
<path fill="none" stroke="#44f" d="M -52.2542485937 -43.2649901859 A 7.29490168752 7.29490168752 0 0 0 -57.2949016875 -36.3271264003"/>
<path fill="#1f5" fill-opacity="0.6" d="m-69.0983005625,50.2028539716 l14.589803375,0.0 l4.50849718747,-13.8757275713 l-14.589803375,-0.0z"/>
<path fill="none" stroke="#f44" d="M -61.803398875 50.2028539716 A 7.29490168752 7.29490168752 0 0 0 -66.8440519688 43.2649901859"/>
<path fill="none" stroke="#44f" d="M -57.2949016875 36.3271264003 A 7.29490168752 7.29490168752 0 0 0 -52.2542485937 43.2649901859"/>
<path fill="#a7f" fill-opacity="0.6" d="m-69.0983005625,-67.3541964869 l14.589803375,0.0 l4.50849718747,-13.8757275713 l-14.589803375,-0.0z"/>
<path fill="none" stroke="#f44" d="M -61.803398875 -67.3541964869 A 7.29490168752 7.29490168752 0 0 0 -66.8440519688 -74.2920602726"/>
<path fill="none" stroke="#44f" d="M -57.2949016875 -81.2299240582 A 7.29490168752 7.29490168752 0 0 0 -52.2542485937 -74.2920602726"/>
<path fill="#22f" fill-opacity="0.6" d="m-69.0983005625,-22.451398829 l4.50849718747,-13.8757275713 l14.589803375,0.0 l-4.50849718747,13.8757275713z"/>
<path fill="none" stroke="#f44" d="M -61.803398875 -22.451398829 A 7.29490168752 7.29490168752 0 0 0 -66.8440519688 -29.3892626146"/>
<path fill="none" stroke="#44f" d="M -57.2949016875 -36.3271264003 A 7.29490168752 7.29490168752 0 0 0 -52.2542485937 -29.3892626146"/>
<path fill="#efb" fill-opacity="0.6" d="m-69.0983005625,22.451398829 l4.50849718747,13.8757275713 l14.589803375,0.0 l-4.50849718747,-13.8757275713z"/>
<path fill="none" stroke="#f44" d="M -66.8440519688 29.3892626146 A 7.29490168752 7.29490168752 0 0 0 -61.803398875 22.451398829"/>
<path fill="none" stroke="#44f" d="M -52.2542485937 29.3892626146 A 7.29490168752 7.29490168752 0 0 0 -57.2949016875 36.3271264003"/>
<path fill="#24" fill-opacity="0.6" d="m-69.0983005625,67.3541964869 l14.589803375,0.0 l4.50849718747,13.8757275713 l-14.589803375,-0.0z"/>
<path fill="none" stroke="#f44" d="M -66.8440519688 74.2920602726 A 7.29490168752 7.29490168752 0 0 0 -61.803398875 67.3541964869"/>
<path fill="none" stroke="#44f" d="M -52.2542485937 74.2920602726 A 7.29490168752 7.29490168752 0 0 0 -57.2949016875 81.2299240582"/>
<path fill="#b2e" fill-opacity="0.6" d="m-54.5084971875,-67.3541964869 l-14.589803375,0.0 l11.803398875,8.57567125769 l14.589803375,-0.0z"/>
<path fill="none" stroke="#f44" d="M -61.803398875 -67.3541964869 A 7.29490168752 7.29490168752 0 0 0 -48.60679775 -63.0663608581"/>
<path fill="none" stroke="#44f" d="M -50.0 -58.7785252292 A 7.29490168752 7.29490168752 0 0 0 -63.196601125 -63.0663608581"/>
<path fill="#7ca" fill-opacity="0.6" d="m-54.5084971875,-50.2028539716 l11.803398875,-8.57567125769 l-14.589803375,0.0 l-11.803398875,8.57567125769z"/>
<path fill="none" stroke="#f44" d="M -48.60679775 -54.4906896004 A 7.29490168752 7.29490168752 0 0 0 -61.803398875 -50.2028539716"/>
<path fill="none" stroke="#44f" d="M -63.196601125 -54.4906896004 A 7.29490168752 7.29490168752 0 0 0 -50.0 -58.7785252292"/>
<path fill="#29b" fill-opacity="0.6" d="m-54.5084971875,50.2028539716 l11.803398875,8.57567125769 l-14.589803375,0.0 l-11.803398875,-8.57567125769z"/>
<path fill="none" stroke="#f44" d="M -61.803398875 50.2028539716 A 7.29490168752 7.29490168752 0 0 0 -48.60679775 54.4906896004"/>
<path fill="none" stroke="#44f" d="M -50.0 58.7785252292 A 7.29490168752 7.29490168752 0 0 0 -63.196601125 54.4906896004"/>
<path fill="#61a" fill-opacity="0.6" d="m-54.5084971875,67.3541964869 l-14.589803375,0.0 l11.803398875,-8.57567125769 l14.589803375,-0.0z"/>
<path fill="none" stroke="#f44" d="M -48.60679775 63.0663608581 A 7.29490168752 7.29490168752 0 0 0 -61.803398875 67.3541964869"/>
<path fill="none" stroke="#44f" d="M -63.196601125 63.0663608581 A 7.29490168752 7.29490168752 0 0 0 -50.0 58.7785252292"/>
<path fill="#a67" fill-opacity="0.6" d="m-54.5084971875,-22.451398829 l-14.589803375,-3.5527136788e-15 l11.803398875,8.57567125769 l14.589803375,3.5527136788e-15z"/>
<path fill="none" stroke="#f44" d="M -61.803398875 -22.451398829 A 7.29490168752 7.29490168752 0 0 0 -48.60679775 -18.1635632001"/>
<path fill="none" stroke="#44f" d="M -50.0 -13.8757275713 A 7.29490168752 7.29490168752 0 0 0 -63.196601125 -18.1635632001"/>
<path fill="#445" fill-opacity="0.6" d="m-54.5084971875,22.451398829 l-14.589803375,3.5527136788e-15 l11.803398875,-8.57567125769 l14.589803375,-3.5527136788e-15z"/>
<path fill="none" stroke="#f44" d="M -48.60679775 18.1635632001 A 7.29490168752 7.29490168752 0 0 0 -61.803398875 22.451398829"/>
<path fill="none" stroke="#44f" d="M -63.196601125 18.1635632001 A 7.29490168752 7.29490168752 0 0 0 -50.0 13.8757275713"/>
<path fill="#75a" fill-opacity="0.6" d="m-38.196601125,-0.0 l-14.589803375,0.0 l-4.50849718747,-13.8757275713 l14.589803375,-0.0z"/>
<path fill="none" stroke="#f44" d="M -40.4508497187 -6.93786378564 A 7.29490168752 7.29490168752 0 0 0 -45.4915028125 0.0"/>
<path fill="none" stroke="#44f" d="M -55.0406530938 -6.93786378564 A 7.29490168752 7.29490168752 0 0 0 -50.0 -13.8757275713"/>
<path fill="#469" fill-opacity="0.6" d="m-38.196601125,0.0 l-14.589803375,0.0 l-4.50849718747,13.8757275713 l14.589803375,-0.0z"/>
<path fill="none" stroke="#f44" d="M -45.4915028125 0.0 A 7.29490168752 7.29490168752 0 0 0 -40.4508497187 6.93786378564"/>
<path fill="none" stroke="#44f" d="M -50.0 13.8757275713 A 7.29490168752 7.29490168752 0 0 0 -55.0406530938 6.93786378564"/>
<path fill="#48c" fill-opacity="0.6" d="m-42.7050983125,-58.7785252292 l-11.803398875,8.57567125769 l4.50849718747,13.8757275713 l11.803398875,-8.57567125769z"/>
<path fill="none" stroke="#f44" d="M -48.60679775 -54.4906896004 A 7.29490168752 7.29490168752 0 0 0 -40.4508497187 -51.8406614436"/>
<path fill="none" stroke="#44f" d="M -44.0983005625 -40.6149620291 A 7.29490168752 7.29490168752 0 0 0 -52.2542485937 -43.2649901859"/>
<path fill="#6d0" fill-opacity="0.6" d="m-42.7050983125,58.7785252292 l-11.803398875,-8.57567125769 l4.50849718747,-13.8757275713 l11.803398875,8.57567125769z"/>
<path fill="none" stroke="#f44" d="M -40.4508497187 51.8406614436 A 7.29490168752 7.29490168752 0 0 0 -48.60679775 54.4906896004"/>
<path fill="none" stroke="#44f" d="M -52.2542485937 43.2649901859 A 7.29490168752 7.29490168752 0 0 0 -44.0983005625 40.6149620291"/>
<path fill="#8d" fill-opacity="0.6" d="m-42.7050983125,-58.7785252292 l-11.803398875,-8.57567125769 l4.50849718747,-13.8757275713 l11.803398875,8.57567125769z"/>
<path fill="none" stroke="#f44" d="M -40.4508497187 -65.7163890149 A 7.29490168752 7.29490168752 0 0 0 -48.60679775 -63.0663608581"/>
<path fill="none" stroke="#44f" d="M -52.2542485937 -74.2920602726 A 7.29490168752 7.29490168752 0 0 0 -44.0983005625 -76.9420884294"/>
<path fill="#e59" fill-opacity="0.6" d="m-42.7050983125,-13.8757275713 l-11.803398875,-8.57567125769 l4.50849718747,-13.8757275713 l11.803398875,8.57567125769z"/>
<path fill="none" stroke="#f44" d="M -40.4508497187 -20.8135913569 A 7.29490168752 7.29490168752 0 0 0 -48.60679775 -18.1635632001"/>
<path fill="none" stroke="#44f" d="M -52.2542485937 -29.3892626146 A 7.29490168752 7.29490168752 0 0 0 -44.0983005625 -32.0392907714"/>
<path fill="#59d" fill-opacity="0.6" d="m-42.7050983125,13.8757275713 l-11.803398875,8.57567125769 l4.50849718747,13.8757275713 l11.803398875,-8.57567125769z"/>
<path fill="none" stroke="#f44" d="M -48.60679775 18.1635632001 A 7.29490168752 7.29490168752 0 0 0 -40.4508497187 20.8135913569"/>
<path fill="none" stroke="#44f" d="M -44.0983005625 32.0392907714 A 7.29490168752 7.29490168752 0 0 0 -52.2542485937 29.3892626146"/>
<path fill="#5c1" fill-opacity="0.6" d="m-42.7050983125,58.7785252292 l-11.803398875,8.57567125769 l4.50849718747,13.8757275713 l11.803398875,-8.57567125769z"/>
<path fill="none" stroke="#f44" d="M -48.60679775 63.0663608581 A 7.29490168752 7.29490168752 0 0 0 -40.4508497187 65.7163890149"/>
<path fill="none" stroke="#44f" d="M -44.0983005625 76.9420884294 A 7.29490168752 7.29490168752 0 0 0 -52.2542485937 74.2920602726"/>
<path fill="#a49" fill-opacity="0.6" d="m-42.7050983125,-86.5299803718 l4.50849718747,13.8757275713 l-11.803398875,-8.57567125769 l-4.50849718747,-13.8757275713z"/>
<path fill="none" stroke="#f44" d="M -48.60679775 -90.8178160007 A 7.29490168752 7.29490168752 0 0 0 -40.4508497187 -79.5921165862"/>
<path fill="none" stroke="#44f" d="M -44.0983005625 -76.9420884294 A 7.29490168752 7.29490168752 0 0 0 -52.2542485937 -88.1677878439"/>
<path fill="#a2c" fill-opacity="0.6" d="m-42.7050983125,86.5299803718 l4.50849718747,-13.8757275713 l-11.803398875,8.57567125769 l-4.50849718747,13.8757275713z"/>
<path fill="none" stroke="#f44" d="M -40.4508497187 79.5921165862 A 7.29490168752 7.29490168752 0 0 0 -48.60679775 90.8178160007"/>
<path fill="none" stroke="#44f" d="M -52.2542485937 88.1677878439 A 7.29490168752 7.29490168752 0 0 0 -44.0983005625 76.9420884294"/>
<path fill="#d4f" fill-opacity="0.6" d="m-26.39320225,-36.3271264003 l-11.803398875,-8.57567125769 l-11.803398875,8.57567125769 l11.803398875,8.57567125769z"/>
<path fill="none" stroke="#f44" d="M -32.2949016875 -40.6149620291 A 7.29490168752 7.29490168752 0 0 0 -32.2949016875 -32.0392907714"/>
<path fill="none" stroke="#44f" d="M -44.0983005625 -32.0392907714 A 7.29490168752 7.29490168752 0 0 0 -44.0983005625 -40.6149620291"/>
<path fill="#1fb" fill-opacity="0.6" d="m-26.39320225,36.3271264003 l-11.803398875,8.57567125769 l-11.803398875,-8.57567125769 l11.803398875,-8.57567125769z"/>
<path fill="none" stroke="#f44" d="M -32.2949016875 32.0392907714 A 7.29490168752 7.29490168752 0 0 0 -32.2949016875 40.6149620291"/>
<path fill="none" stroke="#44f" d="M -44.0983005625 40.6149620291 A 7.29490168752 7.29490168752 0 0 0 -44.0983005625 32.0392907714"/>
<path fill="#1a9" fill-opacity="0.6" d="m-38.196601125,-44.902797658 l-4.50849718747,-13.8757275713 l11.803398875,8.57567125769 l4.50849718747,13.8757275713z"/>
<path fill="none" stroke="#f44" d="M -32.2949016875 -40.6149620291 A 7.29490168752 7.29490168752 0 0 0 -40.4508497187 -51.8406614436"/>
<path fill="none" stroke="#44f" d="M -36.803398875 -54.4906896004 A 7.29490168752 7.29490168752 0 0 0 -28.6474508438 -43.2649901859"/>
<path fill="#c66" fill-opacity="0.6" d="m-38.196601125,-27.7514551426 l11.803398875,-8.57567125769 l-4.50849718747,13.8757275713 l-11.803398875,8.57567125769z"/>
<path fill="none" stroke="#f44" d="M -40.4508497187 -20.8135913569 A 7.29490168752 7.29490168752 0 0 0 -32.2949016875 -32.0392907714"/>
<path fill="none" stroke="#44f" d="M -28.6474508438 -29.3892626146 A 7.29490168752 7.29490168752 0 0 0 -36.803398875 -18.1635632001"/>
<path fill="#2ff" fill-opacity="0.6" d="m-38.196601125,27.7514551426 l11.803398875,8.57567125769 l-4.50849718747,-13.8757275713 l-11.803398875,-8.57567125769z"/>
<path fill="none" stroke="#f44" d="M -32.2949016875 32.0392907714 A 7.29490168752 7.29490168752 0 0 0 -40.4508497187 20.8135913569"/>
<path fill="none" stroke="#44f" d="M -36.803398875 18.1635632001 A 7.29490168752 7.29490168752 0 0 0 -28.6474508438 29.3892626146"/>
<path fill="#d1f" fill-opacity="0.6" d="m-38.196601125,44.902797658 l-4.50849718747,13.8757275713 l11.803398875,-8.57567125769 l4.50849718747,-13.8757275713z"/>
<path fill="none" stroke="#f44" d="M -40.4508497187 51.8406614436 A 7.29490168752 7.29490168752 0 0 0 -32.2949016875 40.6149620291"/>
<path fill="none" stroke="#44f" d="M -28.6474508438 43.2649901859 A 7.29490168752 7.29490168752 0 0 0 -36.803398875 54.4906896004"/>
<path fill="#152" fill-opacity="0.6" d="m-38.196601125,-72.6542528005 l-4.50849718747,-13.8757275713 l11.803398875,-8.57567125769 l4.50849718747,13.8757275713z"/>
<path fill="none" stroke="#f44" d="M -32.2949016875 -76.9420884294 A 7.29490168752 7.29490168752 0 0 0 -40.4508497187 -79.5921165862"/>
<path fill="none" stroke="#44f" d="M -36.803398875 -90.8178160007 A 7.29490168752 7.29490168752 0 0 0 -28.6474508438 -88.1677878439"/>
<path fill="#3bd" fill-opacity="0.6" d="m-38.196601125,72.6542528005 l-4.50849718747,13.8757275713 l11.803398875,8.57567125769 l4.50849718747,-13.8757275713z"/>
<path fill="none" stroke="#f44" d="M -40.4508497187 79.5921165862 A 7.29490168752 7.29490168752 0 0 0 -32.2949016875 76.9420884294"/>
<path fill="none" stroke="#44f" d="M -28.6474508438 88.1677878439 A 7.29490168752 7.29490168752 0 0 0 -36.803398875 90.8178160007"/>
<path fill="#dc9" fill-opacity="0.6" d="m-38.196601125,-0.0 l11.803398875,-8.57567125769 l-4.50849718747,-13.8757275713 l-11.803398875,8.57567125769z"/>
<path fill="none" stroke="#f44" d="M -32.2949016875 -4.28783562885 A 7.29490168752 7.29490168752 0 0 0 -40.4508497187 -6.93786378564"/>
<path fill="none" stroke="#44f" d="M -36.803398875 -18.1635632001 A 7.29490168752 7.29490168752 0 0 0 -28.6474508438 -15.5135350433"/>
<path fill="#a42" fill-opacity="0.6" d="m-38.196601125,0.0 l11.803398875,8.57567125769 l-4.50849718747,13.8757275713 l-11.803398875,-8.57567125769z"/>
<path fill="none" stroke="#f44" d="M -40.4508497187 6.93786378564 A 7.29490168752 7.29490168752 0 0 0 -32.2949016875 4.28783562885"/>
<path fill="none" stroke="#44f" d="M -28.6474508438 15.5135350433 A 7.29490168752 7.29490168752 0 0 0 -36.803398875 18.1635632001"/>
<path fill="#d67" fill-opacity="0.6" d="m-42.7050983125,-58.7785252292 l14.589803375,7.1054273576e-15 l4.50849718747,-13.8757275713 l-14.589803375,-7.1054273576e-15z"/>
<path fill="none" stroke="#f44" d="M -35.410196625 -58.7785252292 A 7.29490168752 7.29490168752 0 0 0 -40.4508497187 -65.7163890149"/>
<path fill="none" stroke="#44f" d="M -30.9016994375 -72.6542528005 A 7.29490168752 7.29490168752 0 0 0 -25.8610463437 -65.7163890149"/>
<path fill="#c75" fill-opacity="0.6" d="m-42.7050983125,58.7785252292 l14.589803375,-7.1054273576e-15 l4.50849718747,13.8757275713 l-14.589803375,7.1054273576e-15z"/>
<path fill="none" stroke="#f44" d="M -40.4508497187 65.7163890149 A 7.29490168752 7.29490168752 0 0 0 -35.410196625 58.7785252292"/>
<path fill="none" stroke="#44f" d="M -25.8610463437 65.7163890149 A 7.29490168752 7.29490168752 0 0 0 -30.9016994375 72.6542528005"/>
<path fill="#c0" fill-opacity="0.6" d="m-28.1152949375,-58.7785252292 l11.803398875,8.57567125769 l-14.589803375,0.0 l-11.803398875,-8.57567125769z"/>
<path fill="none" stroke="#f44" d="M -35.410196625 -58.7785252292 A 7.29490168752 7.29490168752 0 0 0 -22.2135955 -54.4906896004"/>
<path fill="none" stroke="#44f" d="M -23.60679775 -50.2028539716 A 7.29490168752 7.29490168752 0 0 0 -36.803398875 -54.4906896004"/>
<path fill="#8f4" fill-opacity="0.6" d="m-28.1152949375,58.7785252292 l11.803398875,-8.57567125769 l-14.589803375,0.0 l-11.803398875,8.57567125769z"/>
<path fill="none" stroke="#f44" d="M -22.2135955 54.4906896004 A 7.29490168752 7.29490168752 0 0 0 -35.410196625 58.7785252292"/>
<path fill="none" stroke="#44f" d="M -36.803398875 54.4906896004 A 7.29490168752 7.29490168752 0 0 0 -23.60679775 50.2028539716"/>
<path fill="#14b" fill-opacity="0.6" d="m-26.39320225,-81.2299240582 l14.589803375,2.84217094304e-14 l-11.803398875,8.57567125769 l-14.589803375,-2.84217094304e-14z"/>
<path fill="none" stroke="#f44" d="M -32.2949016875 -76.9420884294 A 7.29490168752 7.29490168752 0 0 0 -19.0983005625 -81.2299240582"/>
<path fill="none" stroke="#44f" d="M -17.7050983125 -76.9420884294 A 7.29490168752 7.29490168752 0 0 0 -30.9016994375 -72.6542528005"/>
<path fill="#5d0" fill-opacity="0.6" d="m-26.39320225,-8.57567125769 l14.589803375,0.0 l-11.803398875,8.57567125769 l-14.589803375,-0.0z"/>
<path fill="none" stroke="#f44" d="M -32.2949016875 -4.28783562885 A 7.29490168752 7.29490168752 0 0 0 -19.0983005625 -8.57567125769"/>
<path fill="none" stroke="#44f" d="M -17.7050983125 -4.28783562885 A 7.29490168752 7.29490168752 0 0 0 -30.9016994375 0.0"/>
<path fill="#f91" fill-opacity="0.6" d="m-26.39320225,8.57567125769 l14.589803375,0.0 l-11.803398875,-8.57567125769 l-14.589803375,-0.0z"/>
<path fill="none" stroke="#f44" d="M -19.0983005625 8.57567125769 A 7.29490168752 7.29490168752 0 0 0 -32.2949016875 4.28783562885"/>
<path fill="none" stroke="#44f" d="M -30.9016994375 0.0 A 7.29490168752 7.29490168752 0 0 0 -17.7050983125 4.28783562885"/>
<path fill="#e84" fill-opacity="0.6" d="m-26.39320225,81.2299240582 l14.589803375,-2.84217094304e-14 l-11.803398875,-8.57567125769 l-14.589803375,2.84217094304e-14z"/>
<path fill="none" stroke="#f44" d="M -19.0983005625 81.2299240582 A 7.29490168752 7.29490168752 0 0 0 -32.2949016875 76.9420884294"/>
<path fill="none" stroke="#44f" d="M -30.9016994375 72.6542528005 A 7.29490168752 7.29490168752 0 0 0 -17.7050983125 76.9420884294"/>
<path fill="#d68" fill-opacity="0.6" d="m-11.803398875,-36.3271264003 l-4.50849718747,-13.8757275713 l-14.589803375,0.0 l4.50849718747,13.8757275713z"/>
<path fill="none" stroke="#f44" d="M -14.0576474687 -43.2649901859 A 7.29490168752 7.29490168752 0 0 0 -19.0983005625 -36.3271264003"/>
<path fill="none" stroke="#44f" d="M -28.6474508438 -43.2649901859 A 7.29490168752 7.29490168752 0 0 0 -23.60679775 -50.2028539716"/>
<path fill="#c0c" fill-opacity="0.6" d="m-11.803398875,-36.3271264003 l-4.50849718747,13.8757275713 l-14.589803375,-3.5527136788e-15 l4.50849718747,-13.8757275713z"/>
<path fill="none" stroke="#f44" d="M -19.0983005625 -36.3271264003 A 7.29490168752 7.29490168752 0 0 0 -14.0576474687 -29.3892626146"/>
<path fill="none" stroke="#44f" d="M -23.60679775 -22.451398829 A 7.29490168752 7.29490168752 0 0 0 -28.6474508438 -29.3892626146"/>
<path fill="#f6a" fill-opacity="0.6" d="m-11.803398875,-8.57567125769 l-4.50849718747,-13.8757275713 l-14.589803375,-3.5527136788e-15 l4.50849718747,13.8757275713z"/>
<path fill="none" stroke="#f44" d="M -14.0576474687 -15.5135350433 A 7.29490168752 7.29490168752 0 0 0 -19.0983005625 -8.57567125769"/>
<path fill="none" stroke="#44f" d="M -28.6474508438 -15.5135350433 A 7.29490168752 7.29490168752 0 0 0 -23.60679775 -22.451398829"/>
<path fill="#447" fill-opacity="0.6" d="m-11.803398875,8.57567125769 l-4.50849718747,13.8757275713 l-14.589803375,3.5527136788e-15 l4.50849718747,-13.8757275713z"/>
<path fill="none" stroke="#f44" d="M -19.0983005625 8.57567125769 A 7.29490168752 7.29490168752 0 0 0 -14.0576474687 15.5135350433"/>
<path fill="none" stroke="#44f" d="M -23.60679775 22.451398829 A 7.29490168752 7.29490168752 0 0 0 -28.6474508438 15.5135350433"/>
<path fill="#f8e" fill-opacity="0.6" d="m-11.803398875,36.3271264003 l-4.50849718747,-13.8757275713 l-14.589803375,3.5527136788e-15 l4.50849718747,13.8757275713z"/>
<path fill="none" stroke="#f44" d="M -14.0576474687 29.3892626146 A 7.29490168752 7.29490168752 0 0 0 -19.0983005625 36.3271264003"/>
<path fill="none" stroke="#44f" d="M -28.6474508438 29.3892626146 A 7.29490168752 7.29490168752 0 0 0 -23.60679775 22.451398829"/>
<path fill="#53a" fill-opacity="0.6" d="m-11.803398875,36.3271264003 l-4.50849718747,13.8757275713 l-14.589803375,0.0 l4.50849718747,-13.8757275713z"/>
<path fill="none" stroke="#f44" d="M -19.0983005625 36.3271264003 A 7.29490168752 7.29490168752 0 0 0 -14.0576474687 43.2649901859"/>
<path fill="none" stroke="#44f" d="M -23.60679775 50.2028539716 A 7.29490168752 7.29490168752 0 0 0 -28.6474508438 43.2649901859"/>
<path fill="#8ef" fill-opacity="0.6" d="m-11.803398875,-81.2299240582 l-4.50849718747,-13.8757275713 l-14.589803375,0.0 l4.50849718747,13.8757275713z"/>
<path fill="none" stroke="#f44" d="M -14.0576474687 -88.1677878439 A 7.29490168752 7.29490168752 0 0 0 -19.0983005625 -81.2299240582"/>
<path fill="none" stroke="#44f" d="M -28.6474508438 -88.1677878439 A 7.29490168752 7.29490168752 0 0 0 -23.60679775 -95.1056516295"/>
<path fill="#319" fill-opacity="0.6" d="m-11.803398875,81.2299240582 l-4.50849718747,13.8757275713 l-14.589803375,0.0 l4.50849718747,-13.8757275713z"/>
<path fill="none" stroke="#f44" d="M -19.0983005625 81.2299240582 A 7.29490168752 7.29490168752 0 0 0 -14.0576474687 88.1677878439"/>
<path fill="none" stroke="#44f" d="M -23.60679775 95.1056516295 A 7.29490168752 7.29490168752 0 0 0 -28.6474508438 88.1677878439"/>
<path fill="#51b" fill-opacity="0.6" d="m-16.3118960625,-50.2028539716 l4.50849718747,-13.8757275713 l-11.803398875,-8.57567125769 l-4.50849718747,13.8757275713z"/>
<path fill="none" stroke="#f44" d="M -14.0576474687 -57.1407177572 A 7.29490168752 7.29490168752 0 0 0 -22.2135955 -54.4906896004"/>
<path fill="none" stroke="#44f" d="M -25.8610463437 -65.7163890149 A 7.29490168752 7.29490168752 0 0 0 -17.7050983125 -68.3664171717"/>
<path fill="#3ac" fill-opacity="0.6" d="m-16.3118960625,50.2028539716 l4.50849718747,13.8757275713 l-11.803398875,8.57567125769 l-4.50849718747,-13.8757275713z"/>
<path fill="none" stroke="#f44" d="M -22.2135955 54.4906896004 A 7.29490168752 7.29490168752 0 0 0 -14.0576474687 57.1407177572"/>
<path fill="none" stroke="#44f" d="M -17.7050983125 68.3664171717 A 7.29490168752 7.29490168752 0 0 0 -25.8610463437 65.7163890149"/>
<path fill="#3b2" fill-opacity="0.6" d="m-16.3118960625,-95.1056516295 l4.50849718747,13.8757275713 l4.50849718747,-13.8757275713 l-4.50849718747,-13.8757275713z"/>
<path fill="none" stroke="#f44" d="M -14.0576474687 -88.1677878439 A 7.29490168752 7.29490168752 0 0 0 -14.0576474687 -102.043515415"/>
<path fill="none" stroke="#44f" d="M -9.54915028125 -102.043515415 A 7.29490168752 7.29490168752 0 0 0 -9.54915028125 -88.1677878439"/>
<path fill="#86c" fill-opacity="0.6" d="m-16.3118960625,95.1056516295 l4.50849718747,-13.8757275713 l4.50849718747,13.8757275713 l-4.50849718747,13.8757275713z"/>
<path fill="none" stroke="#f44" d="M -14.0576474687 102.043515415 A 7.29490168752 7.29490168752 0 0 0 -14.0576474687 88.1677878439"/>
<path fill="none" stroke="#44f" d="M -9.54915028125 88.1677878439 A 7.29490168752 7.29490168752 0 0 0 -9.54915028125 102.043515415"/>
<path fill="#571" fill-opacity="0.6" d="m-16.3118960625,-22.451398829 l4.50849718747,13.8757275713 l4.50849718747,-13.8757275713 l-4.50849718747,-13.8757275713z"/>
<path fill="none" stroke="#f44" d="M -14.0576474687 -15.5135350433 A 7.29490168752 7.29490168752 0 0 0 -14.0576474687 -29.3892626146"/>
<path fill="none" stroke="#44f" d="M -9.54915028125 -29.3892626146 A 7.29490168752 7.29490168752 0 0 0 -9.54915028125 -15.5135350433"/>
<path fill="#e1c" fill-opacity="0.6" d="m0.0,0.0 l-11.803398875,8.57567125769 l-11.803398875,-8.57567125769 l11.803398875,-8.57567125769z"/>
<path fill="none" stroke="#f44" d="M -5.90169943749 -4.28783562885 A 7.29490168752 7.29490168752 0 0 0 -5.90169943749 4.28783562885"/>
<path fill="none" stroke="#44f" d="M -17.7050983125 4.28783562885 A 7.29490168752 7.29490168752 0 0 0 -17.7050983125 -4.28783562885"/>
<path fill="#a34" fill-opacity="0.6" d="m-16.3118960625,22.451398829 l4.50849718747,-13.8757275713 l4.50849718747,13.8757275713 l-4.50849718747,13.8757275713z"/>
<path fill="none" stroke="#f44" d="M -14.0576474687 29.3892626146 A 7.29490168752 7.29490168752 0 0 0 -14.0576474687 15.5135350433"/>
<path fill="none" stroke="#44f" d="M -9.54915028125 15.5135350433 A 7.29490168752 7.29490168752 0 0 0 -9.54915028125 29.3892626146"/>
<path fill="#858" fill-opacity="0.6" d="m5.3290705182e-15,-72.6542528005 l-11.803398875,8.57567125769 l-11.803398875,-8.57567125769 l11.803398875,-8.57567125769z"/>
<path fill="none" stroke="#f44" d="M -5.90169943749 -76.9420884294 A 7.29490168752 7.29490168752 0 0 0 -5.90169943749 -68.3664171717"/>
<path fill="none" stroke="#44f" d="M -17.7050983125 -68.3664171717 A 7.29490168752 7.29490168752 0 0 0 -17.7050983125 -76.9420884294"/>
<path fill="#68a" fill-opacity="0.6" d="m5.3290705182e-15,72.6542528005 l-11.803398875,-8.57567125769 l-11.803398875,8.57567125769 l11.803398875,8.57567125769z"/>
<path fill="none" stroke="#f44" d="M -5.90169943749 68.3664171717 A 7.29490168752 7.29490168752 0 0 0 -5.90169943749 76.9420884294"/>
<path fill="none" stroke="#44f" d="M -17.7050983125 76.9420884294 A 7.29490168752 7.29490168752 0 0 0 -17.7050983125 68.3664171717"/>
<path fill="#117" fill-opacity="0.6" d="m-11.803398875,-36.3271264003 l-4.50849718747,-13.8757275713 l11.803398875,-8.57567125769 l4.50849718747,13.8757275713z"/>
<path fill="none" stroke="#f44" d="M -5.90169943749 -40.6149620291 A 7.29490168752 7.29490168752 0 0 0 -14.0576474687 -43.2649901859"/>
<path fill="none" stroke="#44f" d="M -10.410196625 -54.4906896004 A 7.29490168752 7.29490168752 0 0 0 -2.25424859374 -51.8406614436"/>
<path fill="#3f8" fill-opacity="0.6" d="m-11.803398875,36.3271264003 l-4.50849718747,13.8757275713 l11.803398875,8.57567125769 l4.50849718747,-13.8757275713z"/>
<path fill="none" stroke="#f44" d="M -14.0576474687 43.2649901859 A 7.29490168752 7.29490168752 0 0 0 -5.90169943749 40.6149620291"/>
<path fill="none" stroke="#44f" d="M -2.25424859374 51.8406614436 A 7.29490168752 7.29490168752 0 0 0 -10.410196625 54.4906896004"/>
<path fill="#ece" fill-opacity="0.6" d="m-11.803398875,-64.0785815428 l-4.50849718747,13.8757275713 l11.803398875,-8.57567125769 l4.50849718747,-13.8757275713z"/>
<path fill="none" stroke="#f44" d="M -14.0576474687 -57.1407177572 A 7.29490168752 7.29490168752 0 0 0 -5.90169943749 -68.3664171717"/>
<path fill="none" stroke="#44f" d="M -2.25424859374 -65.7163890149 A 7.29490168752 7.29490168752 0 0 0 -10.410196625 -54.4906896004"/>
<path fill="#d1d" fill-opacity="0.6" d="m-11.803398875,64.0785815428 l-4.50849718747,-13.8757275713 l11.803398875,8.57567125769 l4.50849718747,13.8757275713z"/>
<path fill="none" stroke="#f44" d="M -5.90169943749 68.3664171717 A 7.29490168752 7.29490168752 0 0 0 -14.0576474687 57.1407177572"/>
<path fill="none" stroke="#44f" d="M -10.410196625 54.4906896004 A 7.29490168752 7.29490168752 0 0 0 -2.25424859374 65.7163890149"/>
<path fill="#b82" fill-opacity="0.6" d="m0.0,-0.0 l4.50849718747,-13.8757275713 l-11.803398875,-8.57567125769 l-4.50849718747,13.8757275713z"/>
<path fill="none" stroke="#f44" d="M 2.25424859374 -6.93786378564 A 7.29490168752 7.29490168752 0 0 0 -5.90169943749 -4.28783562885"/>
<path fill="none" stroke="#44f" d="M -9.54915028125 -15.5135350433 A 7.29490168752 7.29490168752 0 0 0 -1.39320225002 -18.1635632001"/>
<path fill="#6c4" fill-opacity="0.6" d="m0.0,0.0 l4.50849718747,13.8757275713 l-11.803398875,8.57567125769 l-4.50849718747,-13.8757275713z"/>
<path fill="none" stroke="#f44" d="M -5.90169943749 4.28783562885 A 7.29490168752 7.29490168752 0 0 0 2.25424859374 6.93786378564"/>
<path fill="none" stroke="#44f" d="M -1.39320225002 18.1635632001 A 7.29490168752 7.29490168752 0 0 0 -9.54915028125 15.5135350433"/>
<path fill="#529" fill-opacity="0.6" d="m8.881784197e-16,-27.7514551426 l4.50849718747,13.8757275713 l-11.803398875,-8.57567125769 l-4.50849718747,-13.8757275713z"/>
<path fill="none" stroke="#f44" d="M -5.90169943749 -32.0392907714 A 7.29490168752 7.29490168752 0 0 0 2.25424859374 -20.8135913569"/>
<path fill="none" stroke="#44f" d="M -1.39320225002 -18.1635632001 A 7.29490168752 7.29490168752 0 0 0 -9.54915028125 -29.3892626146"/>
<path fill="#14f" fill-opacity="0.6" d="m8.881784197e-16,27.7514551426 l4.50849718747,-13.8757275713 l-11.803398875,8.57567125769 l-4.50849718747,13.8757275713z"/>
<path fill="none" stroke="#f44" d="M 2.25424859374 20.8135913569 A 7.29490168752 7.29490168752 0 0 0 -5.90169943749 32.0392907714"/>
<path fill="none" stroke="#44f" d="M -9.54915028125 29.3892626146 A 7.29490168752 7.29490168752 0 0 0 -1.39320225002 18.1635632001"/>
<path fill="#344" fill-opacity="0.6" d="m5.3290705182e-15,-72.6542528005 l4.50849718747,-13.8757275713 l-11.803398875,-8.57567125769 l-4.50849718747,13.8757275713z"/>
<path fill="none" stroke="#f44" d="M 2.25424859374 -79.5921165862 A 7.29490168752 7.29490168752 0 0 0 -5.90169943749 -76.9420884294"/>
<path fill="none" stroke="#44f" d="M -9.54915028125 -88.1677878439 A 7.29490168752 7.29490168752 0 0 0 -1.39320225002 -90.8178160007"/>
<path fill="#f6a" fill-opacity="0.6" d="m5.3290705182e-15,72.6542528005 l4.50849718747,13.8757275713 l-11.803398875,8.57567125769 l-4.50849718747,-13.8757275713z"/>
<path fill="none" stroke="#f44" d="M -5.90169943749 76.9420884294 A 7.29490168752 7.29490168752 0 0 0 2.25424859374 79.5921165862"/>
<path fill="none" stroke="#44f" d="M -1.39320225002 90.8178160007 A 7.29490168752 7.29490168752 0 0 0 -9.54915028125 88.1677878439"/>
<path fill="#f8e" fill-opacity="0.6" d="m-11.803398875,-36.3271264003 l11.803398875,8.57567125769 l11.803398875,-8.57567125769 l-11.803398875,-8.57567125769z"/>
<path fill="none" stroke="#f44" d="M -5.90169943749 -32.0392907714 A 7.29490168752 7.29490168752 0 0 0 -5.90169943749 -40.6149620291"/>
<path fill="none" stroke="#44f" d="M 5.90169943749 -40.6149620291 A 7.29490168752 7.29490168752 0 0 0 5.90169943749 -32.0392907714"/>
<path fill="#26e" fill-opacity="0.6" d="m-11.803398875,36.3271264003 l11.803398875,-8.57567125769 l11.803398875,8.57567125769 l-11.803398875,8.57567125769z"/>
<path fill="none" stroke="#f44" d="M -5.90169943749 40.6149620291 A 7.29490168752 7.29490168752 0 0 0 -5.90169943749 32.0392907714"/>
<path fill="none" stroke="#44f" d="M 5.90169943749 32.0392907714 A 7.29490168752 7.29490168752 0 0 0 5.90169943749 40.6149620291"/>
<path fill="#d51" fill-opacity="0.6" d="m4.50849718747,-58.7785252292 l-4.50849718747,-13.8757275713 l-4.50849718747,13.8757275713 l4.50849718747,13.8757275713z"/>
<path fill="none" stroke="#f44" d="M 2.25424859374 -65.7163890149 A 7.29490168752 7.29490168752 0 0 0 2.25424859374 -51.8406614436"/>
<path fill="none" stroke="#44f" d="M -2.25424859374 -51.8406614436 A 7.29490168752 7.29490168752 0 0 0 -2.25424859374 -65.7163890149"/>
<path fill="#d7a" fill-opacity="0.6" d="m4.50849718747,58.7785252292 l-4.50849718747,13.8757275713 l-4.50849718747,-13.8757275713 l4.50849718747,-13.8757275713z"/>
<path fill="none" stroke="#f44" d="M 2.25424859374 51.8406614436 A 7.29490168752 7.29490168752 0 0 0 2.25424859374 65.7163890149"/>
<path fill="none" stroke="#44f" d="M -2.25424859374 65.7163890149 A 7.29490168752 7.29490168752 0 0 0 -2.25424859374 51.8406614436"/>
<path fill="#b56" fill-opacity="0.6" d="m16.3118960625,-95.1056516295 l-11.803398875,8.57567125769 l-11.803398875,-8.57567125769 l11.803398875,-8.57567125769z"/>
<path fill="none" stroke="#f44" d="M 10.410196625 -99.3934872584 A 7.29490168752 7.29490168752 0 0 0 10.410196625 -90.8178160007"/>
<path fill="none" stroke="#44f" d="M -1.39320225002 -90.8178160007 A 7.29490168752 7.29490168752 0 0 0 -1.39320225002 -99.3934872584"/>
<path fill="#2cf" fill-opacity="0.6" d="m16.3118960625,95.1056516295 l-11.803398875,-8.57567125769 l-11.803398875,8.57567125769 l11.803398875,8.57567125769z"/>
<path fill="none" stroke="#f44" d="M 10.410196625 90.8178160007 A 7.29490168752 7.29490168752 0 0 0 10.410196625 99.3934872584"/>
<path fill="none" stroke="#44f" d="M -1.39320225002 99.3934872584 A 7.29490168752 7.29490168752 0 0 0 -1.39320225002 90.8178160007"/>
<path fill="#bfa" fill-opacity="0.6" d="m4.50849718747,-13.8757275713 l11.803398875,-8.57567125769 l-4.50849718747,-13.8757275713 l-11.803398875,8.57567125769z"/>
<path fill="none" stroke="#f44" d="M 10.410196625 -18.1635632001 A 7.29490168752 7.29490168752 0 0 0 2.25424859374 -20.8135913569"/>
<path fill="none" stroke="#44f" d="M 5.90169943749 -32.0392907714 A 7.29490168752 7.29490168752 0 0 0 14.0576474687 -29.3892626146"/>
<path fill="#e80" fill-opacity="0.6" d="m4.50849718747,13.8757275713 l11.803398875,8.57567125769 l-4.50849718747,13.8757275713 l-11.803398875,-8.57567125769z"/>
<path fill="none" stroke="#f44" d="M 2.25424859374 20.8135913569 A 7.29490168752 7.29490168752 0 0 0 10.410196625 18.1635632001"/>
<path fill="none" stroke="#44f" d="M 14.0576474687 29.3892626146 A 7.29490168752 7.29490168752 0 0 0 5.90169943749 32.0392907714"/>
<path fill="#450" fill-opacity="0.6" d="m4.50849718747,-86.5299803718 l11.803398875,-8.57567125769 l-4.50849718747,13.8757275713 l-11.803398875,8.57567125769z"/>
<path fill="none" stroke="#f44" d="M 2.25424859374 -79.5921165862 A 7.29490168752 7.29490168752 0 0 0 10.410196625 -90.8178160007"/>
<path fill="none" stroke="#44f" d="M 14.0576474687 -88.1677878439 A 7.29490168752 7.29490168752 0 0 0 5.90169943749 -76.9420884294"/>
<path fill="#d2e" fill-opacity="0.6" d="m4.50849718747,86.5299803718 l11.803398875,8.57567125769 l-4.50849718747,-13.8757275713 l-11.803398875,-8.57567125769z"/>
<path fill="none" stroke="#f44" d="M 10.410196625 90.8178160007 A 7.29490168752 7.29490168752 0 0 0 2.25424859374 79.5921165862"/>
<path fill="none" stroke="#44f" d="M 5.90169943749 76.9420884294 A 7.29490168752 7.29490168752 0 0 0 14.0576474687 88.1677878439"/>
<path fill="#54e" fill-opacity="0.6" d="m0.0,-0.0 l14.589803375,0.0 l4.50849718747,-13.8757275713 l-14.589803375,-0.0z"/>
<path fill="none" stroke="#f44" d="M 7.29490168752 -0.0 A 7.29490168752 7.29490168752 0 0 0 2.25424859374 -6.93786378564"/>
<path fill="none" stroke="#44f" d="M 11.803398875 -13.8757275713 A 7.29490168752 7.29490168752 0 0 0 16.8440519688 -6.93786378564"/>
<path fill="#3ba" fill-opacity="0.6" d="m0.0,0.0 l14.589803375,0.0 l4.50849718747,13.8757275713 l-14.589803375,-0.0z"/>
<path fill="none" stroke="#f44" d="M 2.25424859374 6.93786378564 A 7.29490168752 7.29490168752 0 0 0 7.29490168752 0.0"/>
<path fill="none" stroke="#44f" d="M 16.8440519688 6.93786378564 A 7.29490168752 7.29490168752 0 0 0 11.803398875 13.8757275713"/>
<path fill="#394" fill-opacity="0.6" d="m8.881784197e-16,-44.902797658 l4.50849718747,-13.8757275713 l14.589803375,-1.42108547152e-14 l-4.50849718747,13.8757275713z"/>
<path fill="none" stroke="#f44" d="M 7.29490168752 -44.902797658 A 7.29490168752 7.29490168752 0 0 0 2.25424859374 -51.8406614436"/>
<path fill="none" stroke="#44f" d="M 11.803398875 -58.7785252292 A 7.29490168752 7.29490168752 0 0 0 16.8440519688 -51.8406614436"/>
<path fill="#399" fill-opacity="0.6" d="m8.881784197e-16,44.902797658 l4.50849718747,13.8757275713 l14.589803375,1.42108547152e-14 l-4.50849718747,-13.8757275713z"/>
<path fill="none" stroke="#f44" d="M 2.25424859374 51.8406614436 A 7.29490168752 7.29490168752 0 0 0 7.29490168752 44.902797658"/>
<path fill="none" stroke="#44f" d="M 16.8440519688 51.8406614436 A 7.29490168752 7.29490168752 0 0 0 11.803398875 58.7785252292"/>
<path fill="#d54" fill-opacity="0.6" d="m5.3290705182e-15,-72.6542528005 l14.589803375,0.0 l4.50849718747,13.8757275713 l-14.589803375,-0.0z"/>
<path fill="none" stroke="#f44" d="M 2.25424859374 -65.7163890149 A 7.29490168752 7.29490168752 0 0 0 7.29490168752 -72.6542528005"/>
<path fill="none" stroke="#44f" d="M 16.8440519688 -65.7163890149 A 7.29490168752 7.29490168752 0 0 0 11.803398875 -58.7785252292"/>
<path fill="#203" fill-opacity="0.6" d="m5.3290705182e-15,72.6542528005 l14.589803375,0.0 l4.50849718747,-13.8757275713 l-14.589803375,-0.0z"/>
<path fill="none" stroke="#f44" d="M 7.29490168752 72.6542528005 A 7.29490168752 7.29490168752 0 0 0 2.25424859374 65.7163890149"/>
<path fill="none" stroke="#44f" d="M 11.803398875 58.7785252292 A 7.29490168752 7.29490168752 0 0 0 16.8440519688 65.7163890149"/>
<path fill="#6b7" fill-opacity="0.6" d="m14.589803375,-72.6542528005 l-14.589803375,0.0 l11.803398875,-8.57567125769 l14.589803375,-0.0z"/>
<path fill="none" stroke="#f44" d="M 20.4915028125 -76.9420884294 A 7.29490168752 7.29490168752 0 0 0 7.29490168752 -72.6542528005"/>
<path fill="none" stroke="#44f" d="M 5.90169943749 -76.9420884294 A 7.29490168752 7.29490168752 0 0 0 19.0983005625 -81.2299240582"/>
<path fill="#aac" fill-opacity="0.6" d="m14.589803375,-44.902797658 l11.803398875,8.57567125769 l-14.589803375,-7.1054273576e-15 l-11.803398875,-8.57567125769z"/>
<path fill="none" stroke="#f44" d="M 7.29490168752 -44.902797658 A 7.29490168752 7.29490168752 0 0 0 20.4915028125 -40.6149620291"/>
<path fill="none" stroke="#44f" d="M 19.0983005625 -36.3271264003 A 7.29490168752 7.29490168752 0 0 0 5.90169943749 -40.6149620291"/>
<path fill="#fa3" fill-opacity="0.6" d="m14.589803375,44.902797658 l11.803398875,-8.57567125769 l-14.589803375,7.1054273576e-15 l-11.803398875,8.57567125769z"/>
<path fill="none" stroke="#f44" d="M 20.4915028125 40.6149620291 A 7.29490168752 7.29490168752 0 0 0 7.29490168752 44.902797658"/>
<path fill="none" stroke="#44f" d="M 5.90169943749 40.6149620291 A 7.29490168752 7.29490168752 0 0 0 19.0983005625 36.3271264003"/>
<path fill="#bc3" fill-opacity="0.6" d="m14.589803375,72.6542528005 l-14.589803375,0.0 l11.803398875,8.57567125769 l14.589803375,-0.0z"/>
<path fill="none" stroke="#f44" d="M 7.29490168752 72.6542528005 A 7.29490168752 7.29490168752 0 0 0 20.4915028125 76.9420884294"/>
<path fill="none" stroke="#44f" d="M 19.0983005625 81.2299240582 A 7.29490168752 7.29490168752 0 0 0 5.90169943749 76.9420884294"/>
<path fill="#819" fill-opacity="0.6" d="m16.3118960625,-22.451398829 l-11.803398875,8.57567125769 l14.589803375,1.7763568394e-15 l11.803398875,-8.57567125769z"/>
<path fill="none" stroke="#f44" d="M 10.410196625 -18.1635632001 A 7.29490168752 7.29490168752 0 0 0 23.60679775 -22.451398829"/>
<path fill="none" stroke="#44f" d="M 25.0 -18.1635632001 A 7.29490168752 7.29490168752 0 0 0 11.803398875 -13.8757275713"/>
<path fill="#f22" fill-opacity="0.6" d="m16.3118960625,22.451398829 l-11.803398875,-8.57567125769 l14.589803375,-1.7763568394e-15 l11.803398875,8.57567125769z"/>
<path fill="none" stroke="#f44" d="M 23.60679775 22.451398829 A 7.29490168752 7.29490168752 0 0 0 10.410196625 18.1635632001"/>
<path fill="none" stroke="#44f" d="M 11.803398875 13.8757275713 A 7.29490168752 7.29490168752 0 0 0 25.0 18.1635632001"/>
<path fill="#865" fill-opacity="0.6" d="m30.9016994375,-22.451398829 l-14.589803375,-3.5527136788e-15 l-4.50849718747,-13.8757275713 l14.589803375,3.5527136788e-15z"/>
<path fill="none" stroke="#f44" d="M 28.6474508438 -29.3892626146 A 7.29490168752 7.29490168752 0 0 0 23.60679775 -22.451398829"/>
<path fill="none" stroke="#44f" d="M 14.0576474687 -29.3892626146 A 7.29490168752 7.29490168752 0 0 0 19.0983005625 -36.3271264003"/>
<path fill="#db6" fill-opacity="0.6" d="m30.9016994375,22.451398829 l-14.589803375,3.5527136788e-15 l-4.50849718747,13.8757275713 l14.589803375,-3.5527136788e-15z"/>
<path fill="none" stroke="#f44" d="M 23.60679775 22.451398829 A 7.29490168752 7.29490168752 0 0 0 28.6474508438 29.3892626146"/>
<path fill="none" stroke="#44f" d="M 19.0983005625 36.3271264003 A 7.29490168752 7.29490168752 0 0 0 14.0576474687 29.3892626146"/>
<path fill="#8ae" fill-opacity="0.6" d="m30.9016994375,-95.1056516295 l-4.50849718747,13.8757275713 l-14.589803375,1.42108547152e-14 l4.50849718747,-13.8757275713z"/>
<path fill="none" stroke="#f44" d="M 23.60679775 -95.1056516295 A 7.29490168752 7.29490168752 0 0 0 28.6474508438 -88.1677878439"/>
<path fill="none" stroke="#44f" d="M 19.0983005625 -81.2299240582 A 7.29490168752 7.29490168752 0 0 0 14.0576474687 -88.1677878439"/>
<path fill="#f8e" fill-opacity="0.6" d="m30.9016994375,95.1056516295 l-4.50849718747,-13.8757275713 l-14.589803375,-1.42108547152e-14 l4.50849718747,13.8757275713z"/>
<path fill="none" stroke="#f44" d="M 28.6474508438 88.1677878439 A 7.29490168752 7.29490168752 0 0 0 23.60679775 95.1056516295"/>
<path fill="none" stroke="#44f" d="M 14.0576474687 88.1677878439 A 7.29490168752 7.29490168752 0 0 0 19.0983005625 81.2299240582"/>
<path fill="#62a" fill-opacity="0.6" d="m26.39320225,-81.2299240582 l4.50849718747,13.8757275713 l-11.803398875,8.57567125769 l-4.50849718747,-13.8757275713z"/>
<path fill="none" stroke="#f44" d="M 20.4915028125 -76.9420884294 A 7.29490168752 7.29490168752 0 0 0 28.6474508438 -74.2920602726"/>
<path fill="none" stroke="#44f" d="M 25.0 -63.0663608581 A 7.29490168752 7.29490168752 0 0 0 16.8440519688 -65.7163890149"/>
<path fill="#469" fill-opacity="0.6" d="m26.39320225,-36.3271264003 l4.50849718747,-13.8757275713 l-11.803398875,-8.57567125769 l-4.50849718747,13.8757275713z"/>
<path fill="none" stroke="#f44" d="M 28.6474508438 -43.2649901859 A 7.29490168752 7.29490168752 0 0 0 20.4915028125 -40.6149620291"/>
<path fill="none" stroke="#44f" d="M 16.8440519688 -51.8406614436 A 7.29490168752 7.29490168752 0 0 0 25.0 -54.4906896004"/>
<path fill="#49e" fill-opacity="0.6" d="m26.39320225,-8.57567125769 l-11.803398875,8.57567125769 l4.50849718747,-13.8757275713 l11.803398875,-8.57567125769z"/>
<path fill="none" stroke="#f44" d="M 28.6474508438 -15.5135350433 A 7.29490168752 7.29490168752 0 0 0 20.4915028125 -4.28783562885"/>
<path fill="none" stroke="#44f" d="M 16.8440519688 -6.93786378564 A 7.29490168752 7.29490168752 0 0 0 25.0 -18.1635632001"/>
<path fill="#992" fill-opacity="0.6" d="m26.39320225,8.57567125769 l-11.803398875,-8.57567125769 l4.50849718747,13.8757275713 l11.803398875,8.57567125769z"/>
<path fill="none" stroke="#f44" d="M 20.4915028125 4.28783562885 A 7.29490168752 7.29490168752 0 0 0 28.6474508438 15.5135350433"/>
<path fill="none" stroke="#44f" d="M 25.0 18.1635632001 A 7.29490168752 7.29490168752 0 0 0 16.8440519688 6.93786378564"/>
<path fill="#8b6" fill-opacity="0.6" d="m26.39320225,36.3271264003 l4.50849718747,13.8757275713 l-11.803398875,8.57567125769 l-4.50849718747,-13.8757275713z"/>
<path fill="none" stroke="#f44" d="M 20.4915028125 40.6149620291 A 7.29490168752 7.29490168752 0 0 0 28.6474508438 43.2649901859"/>
<path fill="none" stroke="#44f" d="M 25.0 54.4906896004 A 7.29490168752 7.29490168752 0 0 0 16.8440519688 51.8406614436"/>
<path fill="#80" fill-opacity="0.6" d="m26.39320225,81.2299240582 l4.50849718747,-13.8757275713 l-11.803398875,-8.57567125769 l-4.50849718747,13.8757275713z"/>
<path fill="none" stroke="#f44" d="M 28.6474508438 74.2920602726 A 7.29490168752 7.29490168752 0 0 0 20.4915028125 76.9420884294"/>
<path fill="none" stroke="#44f" d="M 16.8440519688 65.7163890149 A 7.29490168752 7.29490168752 0 0 0 25.0 63.0663608581"/>
<path fill="#ab" fill-opacity="0.6" d="m14.589803375,0.0 l11.803398875,8.57567125769 l11.803398875,-8.57567125769 l-11.803398875,-8.57567125769z"/>
<path fill="none" stroke="#f44" d="M 20.4915028125 4.28783562885 A 7.29490168752 7.29490168752 0 0 0 20.4915028125 -4.28783562885"/>
<path fill="none" stroke="#44f" d="M 32.2949016875 -4.28783562885 A 7.29490168752 7.29490168752 0 0 0 32.2949016875 4.28783562885"/>
<path fill="#c78" fill-opacity="0.6" d="m42.7050983125,-58.7785252292 l-11.803398875,-8.57567125769 l-11.803398875,8.57567125769 l11.803398875,8.57567125769z"/>
<path fill="none" stroke="#f44" d="M 36.803398875 -63.0663608581 A 7.29490168752 7.29490168752 0 0 0 36.803398875 -54.4906896004"/>
<path fill="none" stroke="#44f" d="M 25.0 -54.4906896004 A 7.29490168752 7.29490168752 0 0 0 25.0 -63.0663608581"/>
<path fill="#960" fill-opacity="0.6" d="m42.7050983125,58.7785252292 l-11.803398875,8.57567125769 l-11.803398875,-8.57567125769 l11.803398875,-8.57567125769z"/>
<path fill="none" stroke="#f44" d="M 36.803398875 54.4906896004 A 7.29490168752 7.29490168752 0 0 0 36.803398875 63.0663608581"/>
<path fill="none" stroke="#44f" d="M 25.0 63.0663608581 A 7.29490168752 7.29490168752 0 0 0 25.0 54.4906896004"/>
<path fill="#876" fill-opacity="0.6" d="m30.9016994375,-50.2028539716 l11.803398875,-8.57567125769 l-4.50849718747,13.8757275713 l-11.803398875,8.57567125769z"/>
<path fill="none" stroke="#f44" d="M 28.6474508438 -43.2649901859 A 7.29490168752 7.29490168752 0 0 0 36.803398875 -54.4906896004"/>
<path fill="none" stroke="#44f" d="M 40.4508497187 -51.8406614436 A 7.29490168752 7.29490168752 0 0 0 32.2949016875 -40.6149620291"/>
<path fill="#9ac" fill-opacity="0.6" d="m30.9016994375,-22.451398829 l11.803398875,-8.57567125769 l-4.50849718747,-13.8757275713 l-11.803398875,8.57567125769z"/>
<path fill="none" stroke="#f44" d="M 36.803398875 -26.7392344578 A 7.29490168752 7.29490168752 0 0 0 28.6474508438 -29.3892626146"/>
<path fill="none" stroke="#44f" d="M 32.2949016875 -40.6149620291 A 7.29490168752 7.29490168752 0 0 0 40.4508497187 -37.9649338723"/>
<path fill="#3f" fill-opacity="0.6" d="m30.9016994375,22.451398829 l11.803398875,8.57567125769 l-4.50849718747,13.8757275713 l-11.803398875,-8.57567125769z"/>
<path fill="none" stroke="#f44" d="M 28.6474508438 29.3892626146 A 7.29490168752 7.29490168752 0 0 0 36.803398875 26.7392344578"/>
<path fill="none" stroke="#44f" d="M 40.4508497187 37.9649338723 A 7.29490168752 7.29490168752 0 0 0 32.2949016875 40.6149620291"/>
<path fill="#194" fill-opacity="0.6" d="m30.9016994375,50.2028539716 l11.803398875,8.57567125769 l-4.50849718747,-13.8757275713 l-11.803398875,-8.57567125769z"/>
<path fill="none" stroke="#f44" d="M 36.803398875 54.4906896004 A 7.29490168752 7.29490168752 0 0 0 28.6474508438 43.2649901859"/>
<path fill="none" stroke="#44f" d="M 32.2949016875 40.6149620291 A 7.29490168752 7.29490168752 0 0 0 40.4508497187 51.8406614436"/>
<path fill="#2ae" fill-opacity="0.6" d="m30.9016994375,-22.451398829 l-4.50849718747,13.8757275713 l11.803398875,8.57567125769 l4.50849718747,-13.8757275713z"/>
<path fill="none" stroke="#f44" d="M 28.6474508438 -15.5135350433 A 7.29490168752 7.29490168752 0 0 0 36.803398875 -18.1635632001"/>
<path fill="none" stroke="#44f" d="M 40.4508497187 -6.93786378564 A 7.29490168752 7.29490168752 0 0 0 32.2949016875 -4.28783562885"/>
<path fill="#264" fill-opacity="0.6" d="m30.9016994375,22.451398829 l-4.50849718747,-13.8757275713 l11.803398875,-8.57567125769 l4.50849718747,13.8757275713z"/>
<path fill="none" stroke="#f44" d="M 36.803398875 18.1635632001 A 7.29490168752 7.29490168752 0 0 0 28.6474508438 15.5135350433"/>
<path fill="none" stroke="#44f" d="M 32.2949016875 4.28783562885 A 7.29490168752 7.29490168752 0 0 0 40.4508497187 6.93786378564"/>
<path fill="#612" fill-opacity="0.6" d="m30.9016994375,-95.1056516295 l-4.50849718747,13.8757275713 l11.803398875,8.57567125769 l4.50849718747,-13.8757275713z"/>
<path fill="none" stroke="#f44" d="M 28.6474508438 -88.1677878439 A 7.29490168752 7.29490168752 0 0 0 36.803398875 -90.8178160007"/>
<path fill="none" stroke="#44f" d="M 40.4508497187 -79.5921165862 A 7.29490168752 7.29490168752 0 0 0 32.2949016875 -76.9420884294"/>
<path fill="#d03" fill-opacity="0.6" d="m30.9016994375,-67.3541964869 l11.803398875,8.57567125769 l-4.50849718747,-13.8757275713 l-11.803398875,-8.57567125769z"/>
<path fill="none" stroke="#f44" d="M 36.803398875 -63.0663608581 A 7.29490168752 7.29490168752 0 0 0 28.6474508438 -74.2920602726"/>
<path fill="none" stroke="#44f" d="M 32.2949016875 -76.9420884294 A 7.29490168752 7.29490168752 0 0 0 40.4508497187 -65.7163890149"/>
<path fill="#609" fill-opacity="0.6" d="m30.9016994375,67.3541964869 l11.803398875,-8.57567125769 l-4.50849718747,13.8757275713 l-11.803398875,8.57567125769z"/>
<path fill="none" stroke="#f44" d="M 28.6474508438 74.2920602726 A 7.29490168752 7.29490168752 0 0 0 36.803398875 63.0663608581"/>
<path fill="none" stroke="#44f" d="M 40.4508497187 65.7163890149 A 7.29490168752 7.29490168752 0 0 0 32.2949016875 76.9420884294"/>
<path fill="#b79" fill-opacity="0.6" d="m30.9016994375,95.1056516295 l-4.50849718747,-13.8757275713 l11.803398875,-8.57567125769 l4.50849718747,13.8757275713z"/>
<path fill="none" stroke="#f44" d="M 36.803398875 90.8178160007 A 7.29490168752 7.29490168752 0 0 0 28.6474508438 88.1677878439"/>
<path fill="none" stroke="#44f" d="M 32.2949016875 76.9420884294 A 7.29490168752 7.29490168752 0 0 0 40.4508497187 79.5921165862"/>
<path fill="#876" fill-opacity="0.6" d="m47.2135955,-44.902797658 l-4.50849718747,13.8757275713 l-4.50849718747,-13.8757275713 l4.50849718747,-13.8757275713z"/>
<path fill="none" stroke="#f44" d="M 44.9593469062 -51.8406614436 A 7.29490168752 7.29490168752 0 0 0 44.9593469062 -37.9649338723"/>
<path fill="none" stroke="#44f" d="M 40.4508497187 -37.9649338723 A 7.29490168752 7.29490168752 0 0 0 40.4508497187 -51.8406614436"/>
<path fill="#548" fill-opacity="0.6" d="m30.9016994375,-22.451398829 l11.803398875,-8.57567125769 l11.803398875,8.57567125769 l-11.803398875,8.57567125769z"/>
<path fill="none" stroke="#f44" d="M 36.803398875 -18.1635632001 A 7.29490168752 7.29490168752 0 0 0 36.803398875 -26.7392344578"/>
<path fill="none" stroke="#44f" d="M 48.60679775 -26.7392344578 A 7.29490168752 7.29490168752 0 0 0 48.60679775 -18.1635632001"/>
<path fill="#b67" fill-opacity="0.6" d="m30.9016994375,22.451398829 l11.803398875,8.57567125769 l11.803398875,-8.57567125769 l-11.803398875,-8.57567125769z"/>
<path fill="none" stroke="#f44" d="M 36.803398875 26.7392344578 A 7.29490168752 7.29490168752 0 0 0 36.803398875 18.1635632001"/>
<path fill="none" stroke="#44f" d="M 48.60679775 18.1635632001 A 7.29490168752 7.29490168752 0 0 0 48.60679775 26.7392344578"/>
<path fill="#a34" fill-opacity="0.6" d="m47.2135955,44.902797658 l-4.50849718747,-13.8757275713 l-4.50849718747,13.8757275713 l4.50849718747,13.8757275713z"/>
<path fill="none" stroke="#f44" d="M 44.9593469062 37.9649338723 A 7.29490168752 7.29490168752 0 0 0 44.9593469062 51.8406614436"/>
<path fill="none" stroke="#44f" d="M 40.4508497187 51.8406614436 A 7.29490168752 7.29490168752 0 0 0 40.4508497187 37.9649338723"/>
<path fill="#872" fill-opacity="0.6" d="m47.2135955,-72.6542528005 l-4.50849718747,-13.8757275713 l-4.50849718747,13.8757275713 l4.50849718747,13.8757275713z"/>
<path fill="none" stroke="#f44" d="M 44.9593469062 -79.5921165862 A 7.29490168752 7.29490168752 0 0 0 44.9593469062 -65.7163890149"/>
<path fill="none" stroke="#44f" d="M 40.4508497187 -65.7163890149 A 7.29490168752 7.29490168752 0 0 0 40.4508497187 -79.5921165862"/>
<path fill="#af3" fill-opacity="0.6" d="m47.2135955,72.6542528005 l-4.50849718747,13.8757275713 l-4.50849718747,-13.8757275713 l4.50849718747,-13.8757275713z"/>
<path fill="none" stroke="#f44" d="M 44.9593469062 65.7163890149 A 7.29490168752 7.29490168752 0 0 0 44.9593469062 79.5921165862"/>
<path fill="none" stroke="#44f" d="M 40.4508497187 79.5921165862 A 7.29490168752 7.29490168752 0 0 0 40.4508497187 65.7163890149"/>
<path fill="#28a" fill-opacity="0.6" d="m47.2135955,0.0 l-4.50849718747,13.8757275713 l-4.50849718747,-13.8757275713 l4.50849718747,-13.8757275713z"/>
<path fill="none" stroke="#f44" d="M 44.9593469062 -6.93786378564 A 7.29490168752 7.29490168752 0 0 0 44.9593469062 6.93786378564"/>
<path fill="none" stroke="#44f" d="M 40.4508497187 6.93786378564 A 7.29490168752 7.29490168752 0 0 0 40.4508497187 -6.93786378564"/>
<path fill="#574" fill-opacity="0.6" d="m42.7050983125,-86.5299803718 l4.50849718747,13.8757275713 l14.589803375,0.0 l-4.50849718747,-13.8757275713z"/>
<path fill="none" stroke="#f44" d="M 44.9593469062 -79.5921165862 A 7.29490168752 7.29490168752 0 0 0 50.0 -86.5299803718"/>
<path fill="none" stroke="#44f" d="M 59.5491502813 -79.5921165862 A 7.29490168752 7.29490168752 0 0 0 54.5084971875 -72.6542528005"/>
<path fill="#e32" fill-opacity="0.6" d="m42.7050983125,-58.7785252292 l4.50849718747,-13.8757275713 l14.589803375,0.0 l-4.50849718747,13.8757275713z"/>
<path fill="none" stroke="#f44" d="M 50.0 -58.7785252292 A 7.29490168752 7.29490168752 0 0 0 44.9593469062 -65.7163890149"/>
<path fill="none" stroke="#44f" d="M 54.5084971875 -72.6542528005 A 7.29490168752 7.29490168752 0 0 0 59.5491502813 -65.7163890149"/>
<path fill="#e45" fill-opacity="0.6" d="m42.7050983125,-58.7785252292 l4.50849718747,13.8757275713 l14.589803375,0.0 l-4.50849718747,-13.8757275713z"/>
<path fill="none" stroke="#f44" d="M 44.9593469062 -51.8406614436 A 7.29490168752 7.29490168752 0 0 0 50.0 -58.7785252292"/>
<path fill="none" stroke="#44f" d="M 59.5491502813 -51.8406614436 A 7.29490168752 7.29490168752 0 0 0 54.5084971875 -44.902797658"/>
<path fill="#740" fill-opacity="0.6" d="m42.7050983125,-31.0270700867 l14.589803375,0.0 l4.50849718747,-13.8757275713 l-14.589803375,-0.0z"/>
<path fill="none" stroke="#f44" d="M 50.0 -31.0270700867 A 7.29490168752 7.29490168752 0 0 0 44.9593469062 -37.9649338723"/>
<path fill="none" stroke="#44f" d="M 54.5084971875 -44.902797658 A 7.29490168752 7.29490168752 0 0 0 59.5491502813 -37.9649338723"/>
<path fill="#52c" fill-opacity="0.6" d="m42.7050983125,-13.8757275713 l14.589803375,0.0 l4.50849718747,13.8757275713 l-14.589803375,-0.0z"/>
<path fill="none" stroke="#f44" d="M 44.9593469062 -6.93786378564 A 7.29490168752 7.29490168752 0 0 0 50.0 -13.8757275713"/>
<path fill="none" stroke="#44f" d="M 59.5491502813 -6.93786378564 A 7.29490168752 7.29490168752 0 0 0 54.5084971875 0.0"/>
<path fill="#212" fill-opacity="0.6" d="m42.7050983125,13.8757275713 l14.589803375,0.0 l4.50849718747,-13.8757275713 l-14.589803375,-0.0z"/>
<path fill="none" stroke="#f44" d="M 50.0 13.8757275713 A 7.29490168752 7.29490168752 0 0 0 44.9593469062 6.93786378564"/>
<path fill="none" stroke="#44f" d="M 54.5084971875 0.0 A 7.29490168752 7.29490168752 0 0 0 59.5491502813 6.93786378564"/>
<path fill="#c4c" fill-opacity="0.6" d="m42.7050983125,31.0270700867 l14.589803375,0.0 l4.50849718747,13.8757275713 l-14.589803375,-0.0z"/>
<path fill="none" stroke="#f44" d="M 44.9593469062 37.9649338723 A 7.29490168752 7.29490168752 0 0 0 50.0 31.0270700867"/>
<path fill="none" stroke="#44f" d="M 59.5491502813 37.9649338723 A 7.29490168752 7.29490168752 0 0 0 54.5084971875 44.902797658"/>
<path fill="#74b" fill-opacity="0.6" d="m42.7050983125,58.7785252292 l4.50849718747,-13.8757275713 l14.589803375,0.0 l-4.50849718747,13.8757275713z"/>
<path fill="none" stroke="#f44" d="M 50.0 58.7785252292 A 7.29490168752 7.29490168752 0 0 0 44.9593469062 51.8406614436"/>
<path fill="none" stroke="#44f" d="M 54.5084971875 44.902797658 A 7.29490168752 7.29490168752 0 0 0 59.5491502813 51.8406614436"/>
<path fill="#567" fill-opacity="0.6" d="m42.7050983125,58.7785252292 l4.50849718747,13.8757275713 l14.589803375,0.0 l-4.50849718747,-13.8757275713z"/>
<path fill="none" stroke="#f44" d="M 44.9593469062 65.7163890149 A 7.29490168752 7.29490168752 0 0 0 50.0 58.7785252292"/>
<path fill="none" stroke="#44f" d="M 59.5491502813 65.7163890149 A 7.29490168752 7.29490168752 0 0 0 54.5084971875 72.6542528005"/>
<path fill="#871" fill-opacity="0.6" d="m42.7050983125,86.5299803718 l4.50849718747,-13.8757275713 l14.589803375,0.0 l-4.50849718747,13.8757275713z"/>
<path fill="none" stroke="#f44" d="M 50.0 86.5299803718 A 7.29490168752 7.29490168752 0 0 0 44.9593469062 79.5921165862"/>
<path fill="none" stroke="#44f" d="M 54.5084971875 72.6542528005 A 7.29490168752 7.29490168752 0 0 0 59.5491502813 79.5921165862"/>
<path fill="#c" fill-opacity="0.6" d="m57.2949016875,-31.0270700867 l-14.589803375,0.0 l11.803398875,8.57567125769 l14.589803375,-0.0z"/>
<path fill="none" stroke="#f44" d="M 50.0 -31.0270700867 A 7.29490168752 7.29490168752 0 0 0 63.196601125 -26.7392344578"/>
<path fill="none" stroke="#44f" d="M 61.803398875 -22.451398829 A 7.29490168752 7.29490168752 0 0 0 48.60679775 -26.7392344578"/>
<path fill="#f8" fill-opacity="0.6" d="m57.2949016875,-13.8757275713 l11.803398875,-8.57567125769 l-14.589803375,0.0 l-11.803398875,8.57567125769z"/>
<path fill="none" stroke="#f44" d="M 63.196601125 -18.1635632001 A 7.29490168752 7.29490168752 0 0 0 50.0 -13.8757275713"/>
<path fill="none" stroke="#44f" d="M 48.60679775 -18.1635632001 A 7.29490168752 7.29490168752 0 0 0 61.803398875 -22.451398829"/>
<path fill="#f69" fill-opacity="0.6" d="m57.2949016875,13.8757275713 l11.803398875,8.57567125769 l-14.589803375,0.0 l-11.803398875,-8.57567125769z"/>
<path fill="none" stroke="#f44" d="M 50.0 13.8757275713 A 7.29490168752 7.29490168752 0 0 0 63.196601125 18.1635632001"/>
<path fill="none" stroke="#44f" d="M 61.803398875 22.451398829 A 7.29490168752 7.29490168752 0 0 0 48.60679775 18.1635632001"/>
<path fill="#fb2" fill-opacity="0.6" d="m57.2949016875,31.0270700867 l-14.589803375,0.0 l11.803398875,-8.57567125769 l14.589803375,-0.0z"/>
<path fill="none" stroke="#f44" d="M 63.196601125 26.7392344578 A 7.29490168752 7.29490168752 0 0 0 50.0 31.0270700867"/>
<path fill="none" stroke="#44f" d="M 48.60679775 26.7392344578 A 7.29490168752 7.29490168752 0 0 0 61.803398875 22.451398829"/>
<path fill="#29" fill-opacity="0.6" d="m69.0983005625,-67.3541964869 l-11.803398875,8.57567125769 l4.50849718747,-13.8757275713 l11.803398875,-8.57567125769z"/>
<path fill="none" stroke="#f44" d="M 71.3525491562 -74.2920602726 A 7.29490168752 7.29490168752 0 0 0 63.196601125 -63.0663608581"/>
<path fill="none" stroke="#44f" d="M 59.5491502813 -65.7163890149 A 7.29490168752 7.29490168752 0 0 0 67.7050983125 -76.9420884294"/>
<path fill="#d72" fill-opacity="0.6" d="m69.0983005625,-50.2028539716 l4.50849718747,13.8757275713 l-11.803398875,-8.57567125769 l-4.50849718747,-13.8757275713z"/>
<path fill="none" stroke="#f44" d="M 63.196601125 -54.4906896004 A 7.29490168752 7.29490168752 0 0 0 71.3525491562 -43.2649901859"/>
<path fill="none" stroke="#44f" d="M 67.7050983125 -40.6149620291 A 7.29490168752 7.29490168752 0 0 0 59.5491502813 -51.8406614436"/>
<path fill="#cfd" fill-opacity="0.6" d="m69.0983005625,-22.451398829 l-11.803398875,-8.57567125769 l4.50849718747,-13.8757275713 l11.803398875,8.57567125769z"/>
<path fill="none" stroke="#f44" d="M 71.3525491562 -29.3892626146 A 7.29490168752 7.29490168752 0 0 0 63.196601125 -26.7392344578"/>
<path fill="none" stroke="#44f" d="M 59.5491502813 -37.9649338723 A 7.29490168752 7.29490168752 0 0 0 67.7050983125 -40.6149620291"/>
<path fill="#5ed" fill-opacity="0.6" d="m69.0983005625,-22.451398829 l4.50849718747,13.8757275713 l-11.803398875,8.57567125769 l-4.50849718747,-13.8757275713z"/>
<path fill="none" stroke="#f44" d="M 63.196601125 -18.1635632001 A 7.29490168752 7.29490168752 0 0 0 71.3525491562 -15.5135350433"/>
<path fill="none" stroke="#44f" d="M 67.7050983125 -4.28783562885 A 7.29490168752 7.29490168752 0 0 0 59.5491502813 -6.93786378564"/>
<path fill="#3f2" fill-opacity="0.6" d="m69.0983005625,22.451398829 l4.50849718747,-13.8757275713 l-11.803398875,-8.57567125769 l-4.50849718747,13.8757275713z"/>
<path fill="none" stroke="#f44" d="M 71.3525491562 15.5135350433 A 7.29490168752 7.29490168752 0 0 0 63.196601125 18.1635632001"/>
<path fill="none" stroke="#44f" d="M 59.5491502813 6.93786378564 A 7.29490168752 7.29490168752 0 0 0 67.7050983125 4.28783562885"/>
<path fill="#e25" fill-opacity="0.6" d="m69.0983005625,22.451398829 l-11.803398875,8.57567125769 l4.50849718747,13.8757275713 l11.803398875,-8.57567125769z"/>
<path fill="none" stroke="#f44" d="M 63.196601125 26.7392344578 A 7.29490168752 7.29490168752 0 0 0 71.3525491562 29.3892626146"/>
<path fill="none" stroke="#44f" d="M 67.7050983125 40.6149620291 A 7.29490168752 7.29490168752 0 0 0 59.5491502813 37.9649338723"/>
<path fill="#27d" fill-opacity="0.6" d="m69.0983005625,50.2028539716 l4.50849718747,-13.8757275713 l-11.803398875,8.57567125769 l-4.50849718747,13.8757275713z"/>
<path fill="none" stroke="#f44" d="M 71.3525491562 43.2649901859 A 7.29490168752 7.29490168752 0 0 0 63.196601125 54.4906896004"/>
<path fill="none" stroke="#44f" d="M 59.5491502813 51.8406614436 A 7.29490168752 7.29490168752 0 0 0 67.7050983125 40.6149620291"/>
<path fill="#f20" fill-opacity="0.6" d="m69.0983005625,67.3541964869 l-11.803398875,-8.57567125769 l4.50849718747,13.8757275713 l11.803398875,8.57567125769z"/>
<path fill="none" stroke="#f44" d="M 63.196601125 63.0663608581 A 7.29490168752 7.29490168752 0 0 0 71.3525491562 74.2920602726"/>
<path fill="none" stroke="#44f" d="M 67.7050983125 76.9420884294 A 7.29490168752 7.29490168752 0 0 0 59.5491502813 65.7163890149"/>
<path fill="#d8a" fill-opacity="0.6" d="m57.2949016875,-58.7785252292 l11.803398875,-8.57567125769 l11.803398875,8.57567125769 l-11.803398875,8.57567125769z"/>
<path fill="none" stroke="#f44" d="M 63.196601125 -54.4906896004 A 7.29490168752 7.29490168752 0 0 0 63.196601125 -63.0663608581"/>
<path fill="none" stroke="#44f" d="M 75.0 -63.0663608581 A 7.29490168752 7.29490168752 0 0 0 75.0 -54.4906896004"/>
<path fill="#b2b" fill-opacity="0.6" d="m57.2949016875,58.7785252292 l11.803398875,8.57567125769 l11.803398875,-8.57567125769 l-11.803398875,-8.57567125769z"/>
<path fill="none" stroke="#f44" d="M 63.196601125 63.0663608581 A 7.29490168752 7.29490168752 0 0 0 63.196601125 54.4906896004"/>
<path fill="none" stroke="#44f" d="M 75.0 54.4906896004 A 7.29490168752 7.29490168752 0 0 0 75.0 63.0663608581"/>
<path fill="#76c" fill-opacity="0.6" d="m85.410196625,0.0 l-11.803398875,8.57567125769 l-11.803398875,-8.57567125769 l11.803398875,-8.57567125769z"/>
<path fill="none" stroke="#f44" d="M 79.5084971875 -4.28783562885 A 7.29490168752 7.29490168752 0 0 0 79.5084971875 4.28783562885"/>
<path fill="none" stroke="#44f" d="M 67.7050983125 4.28783562885 A 7.29490168752 7.29490168752 0 0 0 67.7050983125 -4.28783562885"/>
<path fill="#7e4" fill-opacity="0.6" d="m73.60679775,-36.3271264003 l11.803398875,-8.57567125769 l-4.50849718747,-13.8757275713 l-11.803398875,8.57567125769z"/>
<path fill="none" stroke="#f44" d="M 79.5084971875 -40.6149620291 A 7.29490168752 7.29490168752 0 0 0 71.3525491562 -43.2649901859"/>
<path fill="none" stroke="#44f" d="M 75.0 -54.4906896004 A 7.29490168752 7.29490168752 0 0 0 83.1559480312 -51.8406614436"/>
<path fill="#77a" fill-opacity="0.6" d="m73.60679775,-8.57567125769 l-4.50849718747,-13.8757275713 l11.803398875,8.57567125769 l4.50849718747,13.8757275713z"/>
<path fill="none" stroke="#f44" d="M 79.5084971875 -4.28783562885 A 7.29490168752 7.29490168752 0 0 0 71.3525491562 -15.5135350433"/>
<path fill="none" stroke="#44f" d="M 75.0 -18.1635632001 A 7.29490168752 7.29490168752 0 0 0 83.1559480312 -6.93786378564"/>
<path fill="#eac" fill-opacity="0.6" d="m73.60679775,8.57567125769 l-4.50849718747,13.8757275713 l11.803398875,-8.57567125769 l4.50849718747,-13.8757275713z"/>
<path fill="none" stroke="#f44" d="M 71.3525491562 15.5135350433 A 7.29490168752 7.29490168752 0 0 0 79.5084971875 4.28783562885"/>
<path fill="none" stroke="#44f" d="M 83.1559480312 6.93786378564 A 7.29490168752 7.29490168752 0 0 0 75.0 18.1635632001"/>
<path fill="#2b9" fill-opacity="0.6" d="m73.60679775,36.3271264003 l11.803398875,8.57567125769 l-4.50849718747,13.8757275713 l-11.803398875,-8.57567125769z"/>
<path fill="none" stroke="#f44" d="M 71.3525491562 43.2649901859 A 7.29490168752 7.29490168752 0 0 0 79.5084971875 40.6149620291"/>
<path fill="none" stroke="#44f" d="M 83.1559480312 51.8406614436 A 7.29490168752 7.29490168752 0 0 0 75.0 54.4906896004"/>
<path fill="#469" fill-opacity="0.6" d="m69.0983005625,-22.451398829 l14.589803375,-3.5527136788e-15 l4.50849718747,-13.8757275713 l-14.589803375,3.5527136788e-15z"/>
<path fill="none" stroke="#f44" d="M 76.39320225 -22.451398829 A 7.29490168752 7.29490168752 0 0 0 71.3525491562 -29.3892626146"/>
<path fill="none" stroke="#44f" d="M 80.9016994375 -36.3271264003 A 7.29490168752 7.29490168752 0 0 0 85.9423525313 -29.3892626146"/>
<path fill="#f00" fill-opacity="0.6" d="m69.0983005625,22.451398829 l14.589803375,3.5527136788e-15 l4.50849718747,13.8757275713 l-14.589803375,-3.5527136788e-15z"/>
<path fill="none" stroke="#f44" d="M 71.3525491562 29.3892626146 A 7.29490168752 7.29490168752 0 0 0 76.39320225 22.451398829"/>
<path fill="none" stroke="#44f" d="M 85.9423525313 29.3892626146 A 7.29490168752 7.29490168752 0 0 0 80.9016994375 36.3271264003"/>
<path fill="#d8a" fill-opacity="0.6" d="m83.6881039375,-22.451398829 l11.803398875,8.57567125769 l-14.589803375,1.7763568394e-15 l-11.803398875,-8.57567125769z"/>
<path fill="none" stroke="#f44" d="M 76.39320225 -22.451398829 A 7.29490168752 7.29490168752 0 0 0 89.589803375 -18.1635632001"/>
<path fill="none" stroke="#44f" d="M 88.196601125 -13.8757275713 A 7.29490168752 7.29490168752 0 0 0 75.0 -18.1635632001"/>
<path fill="#fd9" fill-opacity="0.6" d="m83.6881039375,22.451398829 l11.803398875,-8.57567125769 l-14.589803375,-1.7763568394e-15 l-11.803398875,8.57567125769z"/>
<path fill="none" stroke="#f44" d="M 89.589803375 18.1635632001 A 7.29490168752 7.29490168752 0 0 0 76.39320225 22.451398829"/>
<path fill="none" stroke="#44f" d="M 75.0 18.1635632001 A 7.29490168752 7.29490168752 0 0 0 88.196601125 13.8757275713"/>
<path fill="#8cc" fill-opacity="0.6" d="m85.410196625,-44.902797658 l-11.803398875,8.57567125769 l14.589803375,-7.1054273576e-15 l11.803398875,-8.57567125769z"/>
<path fill="none" stroke="#f44" d="M 79.5084971875 -40.6149620291 A 7.29490168752 7.29490168752 0 0 0 92.7050983125 -44.902797658"/>
<path fill="none" stroke="#44f" d="M 94.0983005625 -40.6149620291 A 7.29490168752 7.29490168752 0 0 0 80.9016994375 -36.3271264003"/>
<path fill="#9dc" fill-opacity="0.6" d="m85.410196625,44.902797658 l-11.803398875,-8.57567125769 l14.589803375,7.1054273576e-15 l11.803398875,8.57567125769z"/>
<path fill="none" stroke="#f44" d="M 92.7050983125 44.902797658 A 7.29490168752 7.29490168752 0 0 0 79.5084971875 40.6149620291"/>
<path fill="none" stroke="#44f" d="M 80.9016994375 36.3271264003 A 7.29490168752 7.29490168752 0 0 0 94.0983005625 40.6149620291"/>
<path fill="#614" fill-opacity="0.6" d="m100.0,-0.0 l-14.589803375,0.0 l-4.50849718747,-13.8757275713 l14.589803375,-0.0z"/>
<path fill="none" stroke="#f44" d="M 97.7457514063 -6.93786378564 A 7.29490168752 7.29490168752 0 0 0 92.7050983125 -0.0"/>
<path fill="none" stroke="#44f" d="M 83.1559480312 -6.93786378564 A 7.29490168752 7.29490168752 0 0 0 88.196601125 -13.8757275713"/>
<path fill="#afd" fill-opacity="0.6" d="m100.0,0.0 l-14.589803375,0.0 l-4.50849718747,13.8757275713 l14.589803375,-0.0z"/>
<path fill="none" stroke="#f44" d="M 92.7050983125 0.0 A 7.29490168752 7.29490168752 0 0 0 97.7457514063 6.93786378564"/>
<path fill="none" stroke="#44f" d="M 88.196601125 13.8757275713 A 7.29490168752 7.29490168752 0 0 0 83.1559480312 6.93786378564"/>
<path fill="#49f" fill-opacity="0.6" d="m95.4915028125,-13.8757275713 l-11.803398875,-8.57567125769 l4.50849718747,-13.8757275713 l11.803398875,8.57567125769z"/>
<path fill="none" stroke="#f44" d="M 97.7457514063 -20.8135913569 A 7.29490168752 7.29490168752 0 0 0 89.589803375 -18.1635632001"/>
<path fill="none" stroke="#44f" d="M 85.9423525313 -29.3892626146 A 7.29490168752 7.29490168752 0 0 0 94.0983005625 -32.0392907714"/>
<path fill="#2aa" fill-opacity="0.6" d="m95.4915028125,13.8757275713 l-11.803398875,8.57567125769 l4.50849718747,13.8757275713 l11.803398875,-8.57567125769z"/>
<path fill="none" stroke="#f44" d="M 89.589803375 18.1635632001 A 7.29490168752 7.29490168752 0 0 0 97.7457514063 20.8135913569"/>
<path fill="none" stroke="#44f" d="M 94.0983005625 32.0392907714 A 7.29490168752 7.29490168752 0 0 0 85.9423525313 29.3892626146"/>
</g>
</svg>